<?xml version="1.0" encoding="utf-8"?>
<!-- Generator: Adobe Illustrator 16.0.3, SVG Export Plug-In . SVG Version: 6.00 Build 0)  -->
<!DOCTYPE svg PUBLIC "-//W3C//DTD SVG 1.1//EN" "http://www.w3.org/Graphics/SVG/1.1/DTD/svg11.dtd">
<svg xmlns="http://www.w3.org/2000/svg" viewBox="0 0 284 284">
	<g>
		<path d="M28.347,56.693h226.771v4h-226.77z"/>
		<path d="M28.347,56.693v170.079h4v-170.079z"/>
		<path d="M255.118,226.772h-226.771v4h226.77z"/>
		<path d="M255.118,226.772v-170.079h-4v170.079z"/>
	</g>
	<g>
		<path d="M84.09,100.5c1.634,1.879,2.45,4.154,2.45,6.822c0,2.179-0.588,4.198-1.765,6.058c-1.177,1.863-2.968,3.364-5.373,4.505
		c-2.406,1.141-5.383,1.712-8.93,1.712c-2.6,0-5.172-0.316-7.718-0.949c-2.547-0.631-4.75-1.527-6.612-2.686l3.793-7.851
		c1.44,0.985,3.063,1.739,4.873,2.266c1.809,0.526,3.59,0.791,5.348,0.791c1.791,0,3.213-0.333,4.267-1.002
		c1.054-0.666,1.58-1.614,1.58-2.845c0-2.388-1.879-3.582-5.637-3.582h-4.372v-6.586l6.585-7.111h-14.54v-8.061h26.657v6.533
		l-7.639,8.218C80.113,97.366,82.458,98.622,84.09,100.5z"/>
		<path d="M91.808,81.982h17.438c4.038,0,7.621,0.756,10.747,2.266c3.124,1.51,5.549,3.653,7.269,6.427
		c1.721,2.775,2.581,6.023,2.581,9.746s-0.86,6.972-2.581,9.746c-1.72,2.775-4.145,4.918-7.269,6.427
		c-3.126,1.511-6.709,2.266-10.747,2.266H91.808V81.982z M108.824,110.536c3.161,0,5.697-0.895,7.612-2.686
		c1.914-1.792,2.871-4.268,2.871-7.428c0-3.161-0.957-5.637-2.871-7.428c-1.915-1.792-4.451-2.687-7.612-2.687h-6.585v20.229
		H108.824z"/>
	</g>
	<g>
		<line stroke-width="3" stroke-miterlimit="10" stroke-dasharray="9.9442,4.9721" x1="36.324" y1="220.789" x2="249.128" y2="61.185"/>
	</g>
	<g>
		<path d="M184.332,193.225v8.282H155.58v-6.541l13.821-12.926c1.337-1.266,2.233-2.349,2.69-3.244
		c0.457-0.897,0.686-1.803,0.686-2.717c0-1.194-0.402-2.127-1.212-2.797c-0.81-0.668-1.987-1.004-3.535-1.004
		c-1.37,0-2.629,0.309-3.771,0.924c-1.145,0.618-2.084,1.506-2.822,2.666l-7.755-4.326c1.44-2.392,3.464-4.272,6.065-5.646
		c2.604-1.371,5.68-2.058,9.232-2.058c2.813,0,5.303,0.457,7.465,1.371c2.164,0.916,3.852,2.226,5.063,3.932
		c1.216,1.706,1.824,3.686,1.824,5.934c0,2.004-0.433,3.896-1.295,5.672c-0.861,1.776-2.523,3.791-4.984,6.041l-6.965,6.437H184.332
		L184.332,193.225z"/>
		<path d="M189.292,164.58h17.461c4.045,0,7.632,0.756,10.763,2.269c3.13,1.513,5.558,3.657,7.28,6.437
		c1.724,2.778,2.584,6.031,2.584,9.76c0,3.729-0.86,6.981-2.584,9.762c-1.724,2.777-4.15,4.923-7.28,6.436
		c-3.131,1.512-6.718,2.269-10.763,2.269h-17.461V164.58z M206.333,193.171c3.164,0,5.705-0.896,7.621-2.689
		c1.918-1.794,2.875-4.271,2.875-7.439c0-3.164-0.957-5.644-2.875-7.438c-1.916-1.794-4.457-2.691-7.621-2.691h-6.599v20.26h6.599
		V193.171z"/>
	</g>
</svg>
